<svg width="279" height="184" viewBox="0 0 279 184" fill="none" xmlns="http://www.w3.org/2000/svg">
<path opacity="0.73" d="M191.789 169.201L253.989 134.401C254.189 134.301 254.389 134.201 254.589 134.101C261.589 130.201 267.589 124.501 271.789 117.301C278.089 106.601 279.989 94.0006 276.989 81.9006C273.989 69.7006 266.589 59.5006 256.089 53.0006L194.489 14.9006C140.389 -17.0994 86.6892 12.4006 86.6892 12.4006L24.3892 47.0006C24.1892 47.1006 23.9892 47.2006 23.8892 47.3006C16.8892 51.2006 10.8892 56.9006 6.68925 64.1006C0.289246 74.8006 -1.61075 87.4006 1.38925 99.6006C4.38925 111.801 11.7892 122.001 22.2892 128.501L83.8893 166.601C83.8893 166.601 131.789 202.301 191.789 169.201Z" fill="white"/>
<path d="M80.8893 89.5006C80.9893 89.5006 81.0893 89.5006 81.1893 89.5006L117.389 69.2006C125.989 64.4006 129.089 53.4006 124.289 44.6006C119.589 35.8006 108.789 32.6006 100.189 37.4006L38.0893 72.2006C37.7893 72.4006 37.7893 72.8006 38.1893 72.9006L80.8893 89.5006Z" fill="#E84435"/>
<path d="M107.289 144.701C113.389 144.801 119.389 141.701 122.789 136.001C127.789 127.501 125.089 116.301 116.689 111.101L55.0893 73.0006C46.6893 67.8006 35.7893 70.5006 30.7893 79.1006C25.7893 87.6006 28.4893 98.8006 36.8893 104.001L98.4893 142.101C101.189 143.801 104.289 144.701 107.289 144.701Z" fill="#2376E5"/>
<path d="M169.189 146.201C172.189 146.301 175.289 145.601 178.089 144.001L240.289 109.201C240.589 109.001 240.589 108.601 240.289 108.501L197.989 91.6006C197.889 91.6006 197.789 91.6006 197.689 91.6006L160.889 112.201C152.289 117.001 149.189 128.001 153.989 136.801C157.189 142.701 163.089 146.001 169.189 146.201Z" fill="#F6BA17"/>
<path d="M232.089 111.001C238.189 111.101 244.189 108.001 247.589 102.301C252.589 93.8006 249.889 82.6006 241.489 77.4006L179.889 39.3006C171.489 34.1006 160.589 36.8006 155.589 45.4006C150.589 53.9006 153.289 65.1006 161.689 70.3006L223.289 108.401C225.989 110.001 229.089 110.901 232.089 111.001Z" fill="#089D57"/>
</svg>
